<svg xmlns="http://www.w3.org/2000/svg" viewBox="0 0 60 60" role="img" aria-label="بنهاوي">
    <defs>
        <linearGradient id="bm-bg" x1="0" y1="0" x2="1" y2="1">
            <stop offset="0%"  stop-color="#0D9488"/>
            <stop offset="100%" stop-color="#0E7C72"/>
        </linearGradient>
        <linearGradient id="bm-glow" x1="0" y1="0" x2="0" y2="1">
            <stop offset="0%" stop-color="#FFFFFF" stop-opacity=".25"/>
            <stop offset="100%" stop-color="#FFFFFF" stop-opacity="0"/>
        </linearGradient>
    </defs>

    <rect x="2" y="2" width="56" height="56" rx="16" fill="url(#bm-bg)"/>
    <rect x="2" y="2" width="56" height="28" rx="16" fill="url(#bm-glow)"/>

    <path d="M30 11c-7.7 0-14 6.3-14 14 0 10.5 14 21 14 21s14-10.5 14-21c0-7.7-6.3-14-14-14z"
          fill="#FFFFFF" opacity=".20"/>
    <circle cx="30" cy="25" r="4.5" fill="#FFFFFF"/>

    <path d="M21 36h18M25.5 36c0-1.3 1-2.4 2.3-2.4h4.4c1.3 0 2.3 1.1 2.3 2.4"
          stroke="#FFFFFF" stroke-width="2.8" stroke-linecap="round" fill="none"/>
    <circle cx="36" cy="41" r="1.6" fill="#FFFFFF"/>
</svg>
